# Blender v2.82 (sub 7) OBJ File: 'piece6.blend'
# www.blender.org
mtllib piece6.mtl
o piece6
v 0.000000 -0.118786 0.598514
v 0.000000 -0.118786 0.598514
v 0.957322 0.131214 -0.358809
v 0.957322 0.131214 -0.358809
v 0.957322 0.131214 -0.358809
v 0.000000 0.131214 0.598514
v 0.000000 0.131214 0.598514
v -0.957322 0.131214 -0.358809
v -0.957322 0.131214 -0.358809
v -0.957322 -0.118786 -0.358809
v -0.957322 -0.118786 -0.358809
v 0.957322 -0.118786 -0.358809
v 0.957322 -0.118786 -0.358809
v 0.957322 -0.118786 -0.358809
v 0.000000 -0.103299 0.623514
v -1.000000 0.115726 -0.376486
v 1.000000 0.115726 -0.376486
v 1.000000 0.115726 -0.376486
v 0.000000 0.115726 0.623514
v -1.000000 -0.103299 -0.376486
v 1.000000 -0.103299 -0.376486
v 1.000000 -0.103299 -0.376486
vt 0.000000 1.000000
vt 0.000000 1.000000
vt 0.414214 1.000000
vt 0.414214 1.000000
vt 0.000000 1.000000
vt 0.500000 0.000000
vt 1.000000 1.000000
vt 0.707107 1.000000
vt 0.707107 1.000000
vt 1.000000 1.000000
vt 1.000000 1.000000
vt 0.500000 0.000000
vt 0.000000 1.000000
vt 1.000000 1.000000
vt 0.000000 0.000000
vt 0.000000 0.000000
vt 0.414214 0.000000
vt 0.414214 0.000000
vt 0.707107 0.000000
vt 0.707107 0.000000
vt 1.000000 0.000000
vt 1.000000 0.000000
vn 0.0000 0.7522 -0.6590
vn 0.0000 1.0000 0.0000
vn -0.4660 0.7522 0.4660
vn 0.4660 0.7522 0.4660
vn 0.0000 -1.0000 0.0000
vn 0.0000 -0.7522 -0.6590
vn -0.4660 -0.7522 0.4660
vn 0.4660 -0.7522 0.4660
vn -0.7071 0.0000 0.7071
vn 0.0000 0.0000 -1.0000
vn 0.7071 0.0000 0.7071
usemtl Material_#6
s off
f 3/1/1 17/2/1 8/3/1
f 8/3/1 17/2/1 16/4/1
f 9/5/2 6/6/2 4/7/2
f 7/8/3 8/3/3 16/4/3
f 7/8/3 16/4/3 19/9/3
f 5/10/4 7/8/4 19/9/4
f 5/10/4 19/9/4 18/11/4
f 1/12/5 10/13/5 12/14/5
f 21/15/6 13/16/6 11/17/6
f 21/15/6 11/17/6 20/18/6
f 15/19/7 20/18/7 11/17/7
f 15/19/7 11/17/7 2/20/7
f 22/21/8 15/19/8 2/20/8
f 22/21/8 2/20/8 14/22/8
f 19/9/9 16/4/9 20/18/9
f 19/9/9 20/18/9 15/19/9
f 17/2/10 21/15/10 20/18/10
f 17/2/10 20/18/10 16/4/10
f 18/11/11 19/9/11 15/19/11
f 18/11/11 15/19/11 22/21/11
