# Blender v2.82 (sub 7) OBJ File: 'tray.blend'
# www.blender.org
mtllib tray.mtl
o tray
v -2.001980 -0.130329 2.083168
v -2.001980 -0.130329 2.083168
v -2.601980 -0.130329 2.083168
v -2.601980 -0.130329 2.083168
v 2.598020 -0.130329 1.883168
v 2.598020 -0.130329 1.883168
v 2.598020 -0.130329 1.883168
v 2.598020 -0.130329 -2.716832
v 2.598020 -0.130329 -2.716832
v 2.598020 -0.030329 2.483168
v 2.598020 -0.030329 2.483168
v 2.598020 -0.030329 2.483168
v -2.601980 -0.030329 2.483168
v -2.601980 -0.030329 2.483168
v -2.601980 -0.130329 2.483168
v -2.601980 -0.130329 2.483168
v -2.601980 -0.130329 2.483168
v 2.598020 -0.130329 2.483168
v 2.598020 -0.130329 2.483168
v -2.601980 -0.130329 -2.716832
v -2.601980 -0.130329 -2.716832
v -2.601980 -0.130329 -2.116832
v -2.601980 -0.130329 -2.116832
v -2.601980 -0.130329 -2.116832
v -2.601980 -0.030329 -2.716832
v -2.601980 -0.030329 -2.716832
v 2.598020 -0.030329 -2.716832
v 2.598020 -0.030329 -2.716832
v 2.598020 -0.030329 -2.116832
v 2.598020 -0.030329 -2.116832
v 2.598020 -0.030329 -2.116832
v -2.601980 -0.030329 -2.116832
v -2.601980 -0.030329 -2.116832
v -2.601980 -0.030329 -2.116832
v 2.598020 -0.130329 -2.116832
v 2.598020 -0.130329 -2.116832
v 2.598020 -0.130329 -2.116832
v 2.598020 -0.130329 -2.316832
v 2.598020 -0.130329 -2.316832
v -2.601980 -0.130329 1.883168
v -2.601980 -0.130329 1.883168
v -2.601980 -0.130329 1.883168
v -2.601980 -0.030329 1.883168
v -2.601980 -0.030329 1.883168
v -2.601980 -0.030329 1.883168
v 2.598020 -0.030329 1.883168
v 2.598020 -0.030329 1.883168
v 2.598020 -0.030329 1.883168
v -2.601980 -0.030329 -2.316832
v -2.601980 -0.030329 -2.316832
v -2.601980 -0.130329 -2.316832
v -2.601980 -0.130329 -2.316832
v 2.598020 -0.030329 -2.316832
v 2.598020 -0.030329 -2.316832
v 2.598020 -0.030329 2.083168
v 2.598020 -0.030329 2.083168
v 2.598020 -0.130329 2.083168
v 2.598020 -0.130329 2.083168
v -2.601980 -0.030329 2.083168
v -2.601980 -0.030329 2.083168
v 1.998020 0.294110 2.083168
v 1.998020 0.294110 2.083168
v 1.998020 0.294110 2.083168
v 1.998020 -0.130329 -2.316832
v 1.998020 -0.130329 -2.316832
v 1.998020 -0.130329 1.883168
v 1.998020 -0.130329 1.883168
v 1.998020 -0.130329 1.883168
v 1.998020 -0.130329 2.483168
v 1.998020 -0.130329 2.483168
v 1.998020 -0.130329 2.483168
v 1.998020 -0.030329 2.483168
v 1.998020 -0.030329 2.483168
v 1.998020 -0.030329 2.483168
v 1.998020 -0.030329 2.483168
v 1.998020 -0.130329 2.083168
v 1.998020 -0.130329 2.083168
v 1.998020 -0.130329 -2.116832
v 1.998020 -0.130329 -2.116832
v 1.998020 -0.130329 -2.116832
v 1.998020 0.294110 -2.316832
v 1.998020 0.294110 -2.316832
v 1.998020 0.294110 -2.316832
v 1.998020 -0.130329 -2.716832
v 1.998020 -0.130329 -2.716832
v 1.998020 -0.130329 -2.716832
v 1.998020 -0.030329 -2.716832
v 1.998020 -0.030329 -2.716832
v 1.998020 -0.030329 -2.716832
v 1.998020 0.294110 -2.116832
v 1.998020 0.294110 -2.116832
v 1.998020 0.294110 -2.116832
v 1.998020 0.294110 1.883168
v 1.998020 0.294110 1.883168
v 1.998020 0.294110 1.883168
v -2.001980 0.294110 -2.316832
v -2.001980 0.294110 -2.316832
v -2.001980 0.294110 -2.316832
v -2.001980 -0.030329 2.483168
v -2.001980 -0.030329 2.483168
v -2.001980 -0.030329 2.483168
v -2.001980 -0.130329 2.483168
v -2.001980 -0.130329 2.483168
v -2.001980 -0.130329 2.483168
v -2.001980 -0.130329 2.483168
v -2.001980 0.294110 1.883168
v -2.001980 0.294110 1.883168
v -2.001980 0.294110 1.883168
v -2.001980 0.294110 1.883168
v -2.001980 0.294110 2.083168
v -2.001980 0.294110 2.083168
v -2.001980 0.294110 2.083168
v -2.001980 0.294110 -2.116832
v -2.001980 0.294110 -2.116832
v -2.001980 0.294110 -2.116832
v -2.001980 -0.130329 -2.316832
v -2.001980 -0.130329 -2.316832
v -2.001980 -0.130329 -2.716832
v -2.001980 -0.130329 -2.716832
v -2.001980 -0.130329 -2.716832
v -2.001980 -0.030329 -2.716832
v -2.001980 -0.030329 -2.716832
v -2.001980 -0.030329 -2.716832
v -2.001980 -0.130329 1.883168
v -2.001980 -0.130329 1.883168
v -2.001980 -0.130329 1.883168
v -2.001980 -0.130329 -2.116832
v -2.001980 -0.130329 -2.116832
v -2.001980 -0.130329 -2.116832
v -2.201980 -0.130329 1.883168
v 2.198020 0.294110 2.083168
v 2.198020 0.294110 2.083168
v 2.198020 -0.130329 -2.716832
v 2.198020 -0.130329 2.083168
v 2.198020 -0.130329 2.483168
v 2.198020 -0.030329 2.483168
v 2.198020 -0.030329 2.483168
v 2.198020 -0.130329 -2.116832
v 2.198020 -0.130329 1.883168
v 2.198020 -0.130329 -2.316832
v 2.198020 0.294110 -2.116832
v 2.198020 0.294110 -2.116832
v 2.198020 0.294110 -2.316832
v 2.198020 0.294110 -2.316832
v 2.198020 -0.030329 -2.716832
v 2.198020 0.294110 1.883168
v 2.198020 0.294110 1.883168
v 2.198020 0.294110 1.883168
v -2.201980 0.294110 -2.116832
v -2.201980 0.294110 -2.116832
v -2.201980 0.294110 2.083168
v -2.201980 0.294110 2.083168
v -2.201980 -0.130329 2.483168
v -2.201980 -0.130329 2.483168
v -2.201980 -0.030329 2.483168
v -2.201980 0.294110 1.883168
v -2.201980 0.294110 1.883168
v -2.201980 -0.130329 -2.716832
v -2.201980 0.294110 -2.316832
v -2.201980 0.294110 -2.316832
v -2.201980 -0.030329 -2.716832
v -2.201980 -0.130329 -2.116832
v -2.201980 -0.130329 -2.316832
v -2.201980 -0.030329 -2.116832
v -2.201980 -0.030329 -2.116832
v 2.198020 -0.030329 -2.316832
v 2.198020 -0.030329 -2.316832
v 2.198020 -0.030329 1.883168
v 2.198020 -0.030329 1.883168
v 2.198020 -0.030329 1.883168
v -2.201980 -0.130329 2.083168
v 2.198020 -0.030329 -2.116832
v 2.198020 -0.030329 -2.116832
v -2.001980 -0.030329 -2.316832
v -2.001980 -0.030329 -2.316832
v -2.001980 -0.030329 -2.316832
v 1.998020 -0.030329 -2.316832
v 1.998020 -0.030329 -2.316832
v 1.998020 -0.030329 -2.316832
v -2.201980 -0.030329 -2.316832
v -2.201980 -0.030329 -2.316832
v -2.001980 -0.030329 2.083168
v -2.001980 -0.030329 2.083168
v -2.001980 -0.030329 2.083168
v -2.201980 -0.030329 2.083168
v -2.201980 -0.030329 2.083168
v -2.201980 -0.030329 1.883168
v -2.201980 -0.030329 1.883168
v -2.001980 -0.030329 1.883168
v -2.001980 -0.030329 1.883168
v -2.001980 -0.030329 1.883168
v 2.198020 -0.030329 2.083168
v 2.198020 -0.030329 2.083168
v 1.998020 -0.030329 2.083168
v 1.998020 -0.030329 2.083168
v 1.998020 -0.030329 2.083168
v 1.998020 -0.030329 -2.116832
v 1.998020 -0.030329 -2.116832
v -2.001980 -0.030329 -2.116832
v -2.001980 -0.030329 -2.116832
v 1.998020 -0.030329 1.883168
v 1.998020 -0.030329 1.883168
vt 0.217391 1.000000
vt 0.000000 1.000000
vt 0.000000 0.333333
vt 0.217391 0.333333
vt 0.500000 0.333333
vt 0.500000 1.000000
vt 0.478261 1.000000
vt 0.478261 0.333333
vt 0.500000 1.000000
vt 0.500000 0.333333
vt 0.750000 0.333333
vt 0.750000 1.000000
vt 0.717391 1.000000
vt 0.717391 0.333333
vt 0.739130 0.333333
vt 0.739130 1.000000
vt 0.250000 0.333333
vt 0.250000 1.000000
vt 0.000000 1.000000
vt 0.000000 0.333333
vt 0.500000 1.000000
vt 0.500000 0.333333
vt 0.750000 0.333333
vt 0.750000 1.000000
vt 0.978261 1.000000
vt 0.978261 0.333333
vt 1.000000 0.333333
vt 1.000000 1.000000
vt 0.250000 0.333333
vt 0.250000 1.000000
vt 0.000000 1.000000
vt 0.000000 0.333333
vt 0.239130 0.333333
vt 0.239130 1.000000
vt 0.500000 0.666667
vt 0.250000 0.666667
vt 0.250000 0.333333
vt 0.500000 0.333333
vt 0.227273 1.000000
vt 0.000000 1.000000
vt 0.000000 0.000000
vt 0.227273 0.000000
vt 1.000000 0.666667
vt 0.750000 0.666667
vt 0.750000 0.333333
vt 1.000000 0.333333
vt 0.467391 0.333333
vt 0.467391 1.000000
vt 0.250000 1.000000
vt 0.250000 0.333333
vt 0.250000 0.000000
vt 0.000000 0.000000
vt 0.238636 1.000000
vt 0.238636 0.000000
vt 0.500000 0.000000
vt 0.750000 0.000000
vt 0.250000 0.000000
vt 0.000000 0.000000
vt 1.000000 1.000000
vt 0.988636 1.000000
vt 0.988636 0.000000
vt 1.000000 0.000000
vt 0.500000 0.000000
vt 0.750000 0.000000
vt 0.000000 0.333333
vt 0.217391 0.333333
vt 0.217391 1.000000
vt 0.000000 1.000000
vt 0.978261 1.000000
vt 0.978261 0.333333
vt 1.000000 0.333333
vt 1.000000 1.000000
vt 0.967391 1.000000
vt 0.967391 0.333333
vt 0.750000 1.000000
vt 0.750000 0.333333
vt 0.739130 1.000000
vt 0.739130 0.333333
vt 0.717391 1.000000
vt 0.717391 0.333333
vt 0.500000 0.333333
vt 0.500000 1.000000
vt 0.478261 1.000000
vt 0.478261 0.333333
vt 0.500000 1.000000
vt 0.488636 1.000000
vt 0.488636 0.000000
vt 0.500000 0.000000
vt 0.727273 1.000000
vt 0.727273 0.000000
vt 0.738636 1.000000
vt 0.738636 0.000000
vt 0.239130 0.333333
vt 0.239130 1.000000
vt 0.250000 0.333333
vt 0.250000 0.666667
vt 0.000000 0.666667
vt 0.000000 0.333333
vt 0.977273 0.000000
vt 0.977273 1.000000
vt 0.750000 1.000000
vt 0.750000 0.000000
vt 0.250000 0.000000
vt 0.500000 0.000000
vt 0.500000 0.333333
vt 0.250000 0.333333
vt 0.250000 1.000000
vt 0.000000 1.000000
vt 0.000000 0.000000
vt 0.250000 0.000000
vt 0.500000 0.333333
vt 0.250000 0.333333
vt 0.250000 0.000000
vt 0.500000 0.000000
vt 0.250000 1.000000
vt 0.250000 0.000000
vt 0.477273 0.000000
vt 0.477273 1.000000
vt 0.500000 0.666667
vt 0.500000 0.333333
vt 0.750000 0.333333
vt 0.750000 0.666667
vt 1.000000 1.000000
vt 0.750000 1.000000
vt 0.750000 0.333333
vt 1.000000 0.333333
vt 0.750000 0.000000
vt 1.000000 0.000000
vt 0.500000 0.000000
vt 0.500000 0.333333
vt 0.250000 0.333333
vt 0.250000 0.000000
vt 0.750000 0.000000
vt 1.000000 0.000000
vt 1.000000 0.333333
vt 0.750000 0.333333
vt 1.000000 1.000000
vt 0.750000 1.000000
vt 0.000000 0.000000
vt 0.217391 0.000000
vt 0.239130 0.000000
vt 0.250000 0.000000
vt 0.467391 0.000000
vt 0.478261 0.000000
vt 0.500000 0.000000
vt 0.717391 0.000000
vt 0.739130 0.333333
vt 0.739130 0.000000
vt 0.750000 0.000000
vt 0.750000 0.333333
vt 0.967391 0.000000
vt 0.967391 0.333333
vt 0.978261 0.000000
vt 0.978261 0.333333
vt 0.000000 0.000000
vt 0.217391 0.000000
vt 0.250000 0.000000
vt 0.250000 0.333333
vt 0.239130 0.333333
vt 0.239130 0.000000
vt 0.467391 0.000000
vt 0.467391 0.333333
vt 0.478261 0.000000
vt 0.478261 0.333333
vt 0.500000 0.000000
vt 0.717391 0.000000
vt 0.739130 0.000000
vt 0.750000 0.000000
vt 0.967391 0.000000
vt 0.978261 0.000000
vt 1.000000 0.000000
vt 0.750000 1.000000
vt 0.750000 0.333333
vt 0.967391 0.333333
vt 0.967391 1.000000
vt 0.739130 0.000000
vt 0.500000 1.000000
vt 0.250000 1.000000
vt 0.250000 0.333333
vt 0.500000 0.333333
vt 0.478261 0.000000
vt 0.467391 1.000000
vt 0.467391 0.333333
vt 0.250000 1.000000
vt 0.250000 0.333333
vt 0.239130 0.000000
vt 0.250000 0.333333
vt 0.500000 0.333333
vt 0.500000 1.000000
vt 0.250000 1.000000
vt 0.978261 0.000000
vt 1.000000 0.000000
vt 0.500000 0.000000
vt 0.500000 1.000000
vt 0.750000 1.000000
vt 0.750000 0.000000
vt 1.000000 0.000000
vt 1.000000 1.000000
vt 0.500000 0.666667
vt 0.500000 1.000000
vt 0.250000 1.000000
vt 0.250000 0.666667
vn 0.0000 0.0000 1.0000
vn 0.0000 -1.0000 0.0000
vn 1.0000 0.0000 0.0000
vn 0.0000 1.0000 0.0000
vn 0.0000 0.0000 -1.0000
vn -1.0000 0.0000 0.0000
usemtl Material_#8
s off
f 18/1/1 10/2/1 136/3/1
f 18/1/1 136/3/1 135/4/1
f 133/5/2 8/6/2 38/7/2
f 133/5/2 38/7/2 140/8/2
f 27/9/3 53/10/3 39/11/3
f 27/9/3 39/11/3 9/12/3
f 28/13/4 145/14/4 166/15/4
f 28/13/4 166/15/4 54/16/4
f 28/13/5 8/6/5 133/5/5
f 28/13/5 133/5/5 145/14/5
f 49/17/6 25/18/6 20/19/6
f 49/17/6 20/19/6 51/20/6
f 13/21/6 59/22/6 3/23/6
f 13/21/6 3/23/6 15/24/6
f 55/25/4 192/26/4 137/27/4
f 55/25/4 137/27/4 11/28/4
f 56/29/3 12/30/3 19/31/3
f 56/29/3 19/31/3 57/32/3
f 134/33/2 58/34/2 18/1/2
f 134/33/2 18/1/2 135/4/2
f 29/35/3 46/36/3 5/37/3
f 29/35/3 5/37/3 35/38/3
f 141/39/3 146/40/3 168/41/3
f 141/39/3 168/41/3 172/42/3
f 43/43/6 32/44/6 22/45/6
f 43/43/6 22/45/6 40/46/6
f 138/47/2 36/48/2 6/49/2
f 138/47/2 6/49/2 139/50/2
f 33/51/6 49/17/6 51/20/6
f 33/51/6 51/20/6 23/52/6
f 143/53/3 141/39/3 172/42/3
f 143/53/3 172/42/3 167/54/3
f 53/10/3 30/55/3 37/56/3
f 53/10/3 37/56/3 39/11/3
f 140/8/2 38/7/2 36/48/2
f 140/8/2 36/48/2 138/47/2
f 47/57/3 56/29/3 57/32/3
f 47/57/3 57/32/3 7/58/3
f 147/59/3 131/60/3 193/61/3
f 147/59/3 193/61/3 169/62/3
f 59/22/6 44/63/6 41/64/6
f 59/22/6 41/64/6 3/23/6
f 139/50/2 6/49/2 58/34/2
f 139/50/2 58/34/2 134/33/2
f 153/65/1 155/66/1 14/67/1
f 153/65/1 14/67/1 16/68/1
f 4/69/2 171/70/2 154/71/2
f 4/69/2 154/71/2 17/72/2
f 42/73/2 130/74/2 171/70/2
f 42/73/2 171/70/2 4/69/2
f 24/75/2 162/76/2 130/74/2
f 24/75/2 130/74/2 42/73/2
f 52/77/2 163/78/2 162/76/2
f 52/77/2 162/76/2 24/75/2
f 21/79/2 158/80/2 163/78/2
f 21/79/2 163/78/2 52/77/2
f 161/81/5 158/80/5 21/79/5
f 161/81/5 21/79/5 26/82/5
f 161/81/4 26/82/4 50/83/4
f 161/81/4 50/83/4 180/84/4
f 149/85/6 159/86/6 181/87/6
f 149/85/6 181/87/6 164/88/6
f 156/89/6 149/85/6 164/88/6
f 156/89/6 164/88/6 187/90/6
f 151/91/6 156/89/6 187/90/6
f 151/91/6 187/90/6 185/92/6
f 186/93/4 60/94/4 14/67/4
f 186/93/4 14/67/4 155/66/4
f 69/95/1 72/96/1 99/97/1
f 69/95/1 99/97/1 102/98/1
f 194/99/1 61/100/1 110/101/1
f 194/99/1 110/101/1 182/102/1
f 93/103/4 106/104/4 111/105/4
f 93/103/4 111/105/4 62/106/4
f 113/107/3 107/108/3 189/109/3
f 113/107/3 189/109/3 199/110/3
f 81/111/4 96/112/4 114/113/4
f 81/111/4 114/113/4 90/114/4
f 82/115/5 177/116/5 174/117/5
f 82/115/5 174/117/5 97/118/5
f 87/119/5 84/120/5 118/121/5
f 87/119/5 118/121/5 121/122/5
f 119/123/2 85/124/2 64/125/2
f 119/123/2 64/125/2 116/126/2
f 116/126/2 64/125/2 78/127/2
f 116/126/2 78/127/2 127/128/2
f 128/129/2 79/130/2 66/131/2
f 128/129/2 66/131/2 124/132/2
f 125/133/2 67/134/2 76/135/2
f 1/136/2 125/133/2 76/135/2
f 1/136/2 76/135/2 70/137/2
f 1/136/2 70/137/2 103/138/2
f 135/4/1 136/3/1 73/139/1
f 135/4/1 73/139/1 71/140/1
f 77/141/2 134/33/2 135/4/2
f 77/141/2 135/4/2 71/140/2
f 68/142/2 139/50/2 134/33/2
f 68/142/2 134/33/2 77/141/2
f 80/143/2 138/47/2 139/50/2
f 80/143/2 139/50/2 68/142/2
f 65/144/2 140/8/2 138/47/2
f 65/144/2 138/47/2 80/143/2
f 86/145/2 133/5/2 140/8/2
f 86/145/2 140/8/2 65/144/2
f 145/14/5 133/5/5 86/145/5
f 145/14/5 86/145/5 88/146/5
f 143/53/5 167/54/5 177/116/5
f 143/53/5 177/116/5 82/115/5
f 144/147/4 83/148/4 91/149/4
f 144/147/4 91/149/4 142/150/4
f 142/150/4 91/149/4 94/151/4
f 142/150/4 94/151/4 148/152/4
f 148/152/4 94/151/4 63/153/4
f 148/152/4 63/153/4 132/154/4
f 193/61/1 131/60/1 61/100/1
f 193/61/1 61/100/1 194/99/1
f 104/155/1 100/156/1 155/66/1
f 104/155/1 155/66/1 153/65/1
f 182/102/1 110/101/1 151/91/1
f 182/102/1 151/91/1 185/92/1
f 108/157/4 157/158/4 152/159/4
f 108/157/4 152/159/4 112/160/4
f 115/161/4 150/162/4 157/158/4
f 115/161/4 157/158/4 108/157/4
f 98/163/4 160/164/4 150/162/4
f 98/163/4 150/162/4 115/161/4
f 97/118/5 174/117/5 181/87/5
f 97/118/5 181/87/5 159/86/5
f 122/165/5 120/166/5 158/80/5
f 122/165/5 158/80/5 161/81/5
f 158/80/2 120/166/2 117/167/2
f 158/80/2 117/167/2 163/78/2
f 163/78/2 117/167/2 129/168/2
f 163/78/2 129/168/2 162/76/2
f 162/76/2 129/168/2 126/169/2
f 162/76/2 126/169/2 130/74/2
f 130/74/2 126/169/2 2/170/2
f 130/74/2 2/170/2 171/70/2
f 171/70/2 2/170/2 105/171/2
f 171/70/2 105/171/2 154/71/2
f 31/172/4 173/173/4 170/174/4
f 31/172/4 170/174/4 48/175/4
f 54/16/4 166/15/4 173/173/4
f 54/16/4 173/173/4 31/172/4
f 145/14/4 88/146/4 178/176/4
f 145/14/4 178/176/4 166/15/4
f 89/177/4 123/178/4 175/179/4
f 89/177/4 175/179/4 179/180/4
f 122/165/4 161/81/4 180/84/4
f 122/165/4 180/84/4 176/181/4
f 180/84/4 50/83/4 34/182/4
f 180/84/4 34/182/4 165/183/4
f 165/183/4 34/182/4 45/184/4
f 165/183/4 45/184/4 188/185/4
f 188/185/4 45/184/4 60/94/4
f 188/185/4 60/94/4 186/93/4
f 183/186/4 186/93/4 155/66/4
f 183/186/4 155/66/4 100/156/4
f 195/187/4 184/188/4 101/189/4
f 195/187/4 101/189/4 74/190/4
f 192/26/4 196/191/4 75/192/4
f 192/26/4 75/192/4 137/27/4
f 48/175/4 170/174/4 192/26/4
f 48/175/4 192/26/4 55/25/4
f 197/193/1 92/194/1 113/107/1
f 197/193/1 113/107/1 199/110/1
f 95/195/6 92/194/6 197/193/6
f 95/195/6 197/193/6 201/196/6
f 95/195/5 201/196/5 190/197/5
f 95/195/5 190/197/5 109/198/5
f 198/199/4 200/200/4 191/201/4
f 198/199/4 191/201/4 202/202/4
